#N canvas 191 326 407 351 10;
#X text 57 37 <-keypad numbers ASCII Values->;
#X obj 24 16 key;
#X obj 24 56 select 48 49 50 51 52 53 54 55 56 57;
#X msg 24 82 0;
#X msg 45 105 1;
#X msg 67 82 2;
#X msg 88 105 3;
#X msg 109 82 4;
#X msg 130 105 5;
#X msg 153 82 6;
#X msg 174 105 7;
#X msg 193 82 8;
#X msg 214 105 9;
#X obj 108 266 t l;
#X obj 24 266 list prepend;
#X obj 24 134 s keystrokes;
#X obj 24 245 r keystrokes;
#X obj 237 134 t b;
#X obj 237 157 s keystrokes-return;
#X obj 106 222 r keystrokes-return;
#X obj 106 245 t b b;
#X obj 133 291 list;
#X obj 133 314 print;
#X text 178 314 << here is your sequence of numbers;
#X obj 237 82 select 10;
#X text 251 55 return;
#X obj 22 189 bng 15 250 50 0 empty empty empty 17 7 0 10 -262144 -1
-1;
#X obj 370 202 bng 15 250 50 0 empty empty empty 17 7 0 10 -262144
-1 -1;
#X connect 1 0 2 0;
#X connect 2 0 3 0;
#X connect 2 1 4 0;
#X connect 2 2 5 0;
#X connect 2 3 6 0;
#X connect 2 4 7 0;
#X connect 2 5 8 0;
#X connect 2 6 9 0;
#X connect 2 7 10 0;
#X connect 2 8 11 0;
#X connect 2 9 12 0;
#X connect 2 10 24 0;
#X connect 3 0 15 0;
#X connect 4 0 15 0;
#X connect 5 0 15 0;
#X connect 6 0 15 0;
#X connect 7 0 15 0;
#X connect 8 0 15 0;
#X connect 9 0 15 0;
#X connect 10 0 15 0;
#X connect 11 0 15 0;
#X connect 12 0 15 0;
#X connect 13 0 14 1;
#X connect 14 0 13 0;
#X connect 14 0 21 1;
#X connect 16 0 14 0;
#X connect 17 0 18 0;
#X connect 19 0 20 0;
#X connect 20 0 14 1;
#X connect 20 1 21 0;
#X connect 21 0 22 0;
#X connect 24 0 17 0;
#X connect 26 0 27 0;
